<?xml version="1.0" encoding="UTF-8" standalone="no"?>
<!-- Created with Inkscape (http://www.inkscape.org/) -->

<svg
   width="50mm"
   height="51.020203mm"
   viewBox="0 0 50 51.020203"
   version="1.1"
   id="svg5"
   inkscape:version="1.2.1 (9c6d41e410, 2022-07-14)"
   sodipodi:docname="drawing.svg"
   inkscape:export-filename="Programming\Assets\vectors\github.svg"
   inkscape:export-xdpi="96"
   inkscape:export-ydpi="96"
   xmlns:inkscape="http://www.inkscape.org/namespaces/inkscape"
   xmlns:sodipodi="http://sodipodi.sourceforge.net/DTD/sodipodi-0.dtd"
   xmlns="http://www.w3.org/2000/svg"
   xmlns:svg="http://www.w3.org/2000/svg">
  <sodipodi:namedview
     id="namedview7"
     pagecolor="#ffffff"
     bordercolor="#000000"
     borderopacity="0.25"
     inkscape:showpageshadow="2"
     inkscape:pageopacity="0.0"
     inkscape:pagecheckerboard="0"
     inkscape:deskcolor="#d1d1d1"
     inkscape:document-units="mm"
     showgrid="false"
     inkscape:zoom="1.0129245"
     inkscape:cx="444.75181"
     inkscape:cy="89.345257"
     inkscape:window-width="1920"
     inkscape:window-height="991"
     inkscape:window-x="-9"
     inkscape:window-y="-9"
     inkscape:window-maximized="1"
     inkscape:current-layer="layer1" />
  <defs
     id="defs2" />
  <g
     inkscape:label="Layer 1"
     inkscape:groupmode="layer"
     id="layer1"
     transform="translate(440.58155,33.672692)">
    <path
       d="m -390.58173,-7.5828131 c 0,-1.808898 -0.16215,-3.5482269 -0.46367,-5.2179789 h -24.02585 v 9.8793649 h 13.72905 c -0.60304,3.17716496 -2.41181,5.867323 -5.12522,7.676223 v 6.4239081 h 8.27925 c 4.8237,-4.4526721 7.60662,-10.99253614 7.60662,-18.7615171 z"
       fill="#4285f4"
       id="path161"
       style="stroke-width:2.3191" />
    <path
       d="m -415.07142,17.347512 c 6.8877,0 12.66224,-2.272721 16.88308,-6.168808 l -8.27925,-6.4239081 c -2.27271,1.530607 -5.17159,2.458242 -8.60383,2.458242 -6.63264,0 -12.26808,-4.475855 -14.28563,-10.505516 h -8.48795 v 6.586246 c 4.19761,8.3255691 12.80144,14.0537441 22.77358,14.0537441 z"
       fill="#34a853"
       id="path163"
       style="stroke-width:2.3191" />
    <path
       d="m -429.35705,-3.3156731 c -0.51013,-1.530605 -0.81165,-3.153972 -0.81165,-4.846917 0,-1.692944 0.30152,-3.3163109 0.81165,-4.8469169 v -6.586247 h -8.48795 c -1.73934,3.432265 -2.73655,7.30517 -2.73655,11.4331639 0,4.127995 0.99721,8.00089096 2.73655,11.433167 l 6.60942,-5.148404 z"
       fill="#fbbc05"
       id="path165"
       style="stroke-width:2.3191" />
    <path
       d="m -415.07142,-23.515034 c 3.7569,0 7.0964,1.298699 9.76345,3.803327 l 7.30509,-7.305169 c -4.42944,-4.127996 -10.18084,-6.655816 -17.06854,-6.655816 -9.97214,0 -18.57597,5.728178 -22.77358,14.076938 l 8.48795,6.586247 c 2.01755,-6.029663 7.65299,-10.505527 14.28563,-10.505527 z"
       fill="#ea4335"
       id="path167"
       style="stroke-width:2.3191" />
  </g>
</svg>
