<?xml version="1.0" encoding="UTF-8" standalone="no"?>
<!-- Created with Inkscape (http://www.inkscape.org/) -->

<svg
   width="14.163514mm"
   height="14.163mm"
   viewBox="0 0 14.163514 14.163"
   version="1.1"
   id="svg5"
   inkscape:version="1.2.1 (9c6d41e410, 2022-07-14)"
   sodipodi:docname="drawing.svg"
   xmlns:inkscape="http://www.inkscape.org/namespaces/inkscape"
   xmlns:sodipodi="http://sodipodi.sourceforge.net/DTD/sodipodi-0.dtd"
   xmlns="http://www.w3.org/2000/svg"
   xmlns:svg="http://www.w3.org/2000/svg">
  <sodipodi:namedview
     id="namedview7"
     pagecolor="#ffffff"
     bordercolor="#000000"
     borderopacity="0.25"
     inkscape:showpageshadow="2"
     inkscape:pageopacity="0.0"
     inkscape:pagecheckerboard="0"
     inkscape:deskcolor="#d1d1d1"
     inkscape:document-units="mm"
     showgrid="false"
     inkscape:zoom="5.7299663"
     inkscape:cx="72.251734"
     inkscape:cy="30.27941"
     inkscape:window-width="1920"
     inkscape:window-height="991"
     inkscape:window-x="-9"
     inkscape:window-y="-9"
     inkscape:window-maximized="1"
     inkscape:current-layer="layer1" />
  <defs
     id="defs2" />
  <g
     inkscape:label="Layer 1"
     inkscape:groupmode="layer"
     id="layer1"
     transform="translate(22.164179,5.4486941)">
    <path
       id="path234"
       style="fill:none;stroke:#ffffff;stroke-width:0.6;stroke-dasharray:none;stroke-opacity:1"
       d="m -9.8860981,-2.6912431 a 6.7816882,6.7816882 0 0 1 -5.1960659,2.43034196 6.7816882,6.7816882 0 0 1 -5.193998,-2.42724196 6.7816882,6.7816882 0 0 0 -1.588017,4.354257 6.7816882,6.7816882 0 0 0 1.722376,4.5113521 6.7816882,6.7816882 0 0 1 5.059639,-2.2711791 6.7816882,6.7816882 0 0 1 5.061707,2.2691121 6.7816882,6.7816882 0 0 0 1.7197919,-4.5092851 6.7816882,6.7816882 0 0 0 -1.585433,-4.357357 z" />
    <path
       style="fill:none;stroke:#ffffff;stroke-width:0.6;stroke-dasharray:none;stroke-opacity:1"
       d="M -22.042653,1.8222859 H -8.0515161"
       id="path6237" />
    <path
       style="fill:none;stroke:#ffffff;stroke-width:0.6;stroke-dasharray:none;stroke-opacity:1"
       d="M -15.193011,-5.448694 V 8.680969"
       id="path6237-2" />
    <path
       id="path11515"
       style="fill:none;stroke:#ffffff;stroke-width:0.6;stroke-dasharray:none;stroke-opacity:1"
       d="m -15.168741,-4.8838706 a 7.1803722,7.1803718 0 0 0 -4.173388,6.5163981 7.1803722,7.1803718 0 0 0 4.173388,6.5169145 z" />
    <path
       id="path11515-7"
       style="fill:none;stroke:#ffffff;stroke-width:0.6;stroke-dasharray:none;stroke-opacity:1"
       d="m -15.184081,-4.8381375 a 7.1803722,7.1803718 0 0 1 4.173388,6.516398 7.1803722,7.1803718 0 0 1 -4.173388,6.5169155 z" />
    <ellipse
       style="fill:none;stroke:#ffffff;stroke-width:0.598549;stroke-dasharray:none;stroke-opacity:1"
       id="path11515-5"
       cx="-15.082679"
       cy="1.6328061"
       rx="6.7822261"
       ry="6.7822256" />
  </g>
</svg>
