<?xml version="1.0" encoding="UTF-8" standalone="no"?>
<!-- Created with Inkscape (http://www.inkscape.org/) -->

<svg
   width="17.435173mm"
   height="18.725216mm"
   viewBox="0 0 17.435173 18.725216"
   version="1.1"
   id="svg5"
   inkscape:version="1.2.1 (9c6d41e410, 2022-07-14)"
   sodipodi:docname="drawing.svg"
   inkscape:export-filename="Programming\Assets\vectors\door.svg"
   inkscape:export-xdpi="96"
   inkscape:export-ydpi="96"
   xmlns:inkscape="http://www.inkscape.org/namespaces/inkscape"
   xmlns:sodipodi="http://sodipodi.sourceforge.net/DTD/sodipodi-0.dtd"
   xmlns="http://www.w3.org/2000/svg"
   xmlns:svg="http://www.w3.org/2000/svg">
  <sodipodi:namedview
     id="namedview7"
     pagecolor="#ffffff"
     bordercolor="#000000"
     borderopacity="0.25"
     inkscape:showpageshadow="2"
     inkscape:pageopacity="0.0"
     inkscape:pagecheckerboard="0"
     inkscape:deskcolor="#d1d1d1"
     inkscape:document-units="mm"
     showgrid="false"
     inkscape:zoom="5.7299663"
     inkscape:cx="-5.2356329"
     inkscape:cy="36.038606"
     inkscape:window-width="1920"
     inkscape:window-height="991"
     inkscape:window-x="-9"
     inkscape:window-y="-9"
     inkscape:window-maximized="1"
     inkscape:current-layer="layer1" />
  <defs
     id="defs2" />
  <g
     inkscape:label="Layer 1"
     inkscape:groupmode="layer"
     id="layer1"
     transform="translate(1.9358912,-13.633968)">
    <path
       id="rect21215"
       style="fill:#ffffff;fill-opacity:1;stroke:#ffffff;stroke-width:0.711;stroke-dasharray:none;stroke-opacity:1"
       d="m -1.3178742,13.989468 c -0.145353,0 -0.262517,0.117163 -0.262517,0.262517 v 12.667443 c 0,0.145354 0.117164,0.262517 0.262517,0.262517 h 8.853206 c 0.145353,0 0.262516,-0.117163 0.262516,-0.262517 V 22.83389 h -0.240812 v 3.859712 c 0,0.139364 -0.1123,0.251665 -0.251664,0.251665 h -8.409306 c -0.139364,0 -0.251147,-0.112301 -0.251147,-0.251665 V 14.54809 c 0,-0.139362 0.111783,-0.251664 0.251147,-0.251664 h 8.409306 c 0.139364,0 0.251664,0.112302 0.251664,0.251664 v 4.106727 h 0.240812 v -4.402832 c 0,-0.145354 -0.117163,-0.262517 -0.262516,-0.262517 z" />
    <path
       id="rect21215-3"
       style="fill:#ffffff;fill-opacity:1;stroke:#ffffff;stroke-width:0.711;stroke-dasharray:none;stroke-opacity:1"
       d="m -1.4250982,14.023635 c -0.08584,-0.07554 -0.155029,-0.01788 -0.155029,0.129186 v 12.816223 c 0,0.147062 0.06919,0.326484 0.155029,0.402016 l 5.228244,4.600514 c 0.08584,0.07553 0.155028,0.01788 0.155028,-0.129186 V 19.026165 c 0,-0.147062 -0.06919,-0.326483 -0.155028,-0.402015 z m 0.126342,0.421736 4.966099,4.369845 c 0.0823,0.07242 0.14862,0.244395 0.14862,0.385395 v 12.288162 c 0,0.141001 -0.06632,0.196265 -0.14862,0.123846 l -4.966099,-4.369844 c -0.0823,-0.07242 -0.148314,-0.244127 -0.148314,-0.385128 V 14.569484 c 0,-0.141 0.06601,-0.196532 0.148314,-0.124113 z" />
    <path
       style="fill:#ffffff;fill-opacity:1;stroke:#ffffff;stroke-width:0.551;stroke-dasharray:none;stroke-opacity:1"
       d="M 5.2700688,20.739502 H 13.096671"
       id="path32667" />
    <path
       sodipodi:type="star"
       style="fill:#ffffff;fill-opacity:1;stroke:#ffffff;stroke-width:0.551;stroke-dasharray:none;stroke-opacity:1"
       id="path34527"
       inkscape:flatsided="true"
       sodipodi:sides="3"
       sodipodi:cx="137.90514"
       sodipodi:cy="-12.031992"
       sodipodi:r1="6.1730285"
       sodipodi:r2="3.0865142"
       sodipodi:arg1="0.029991005"
       sodipodi:arg2="1.0771886"
       inkscape:rounded="0"
       inkscape:randomized="0"
       d="m 144.07539,-11.846884 -9.41569,5.0659336 0.32062,-10.6871906 z"
       transform="matrix(0.26444134,-0.00866707,0.00866707,0.26444134,-22.643314,25.006416)"
       inkscape:transform-center-x="-0.40635818"
       inkscape:transform-center-y="0.0022629524" />
  </g>
</svg>
