<?xml version="1.0" encoding="UTF-8" standalone="no"?>
<!-- Created with Inkscape (http://www.inkscape.org/) -->

<svg
   width="50.00008mm"
   height="49.166988mm"
   viewBox="0 0 50.00008 49.166989"
   version="1.1"
   id="svg5"
   inkscape:version="1.2.1 (9c6d41e410, 2022-07-14)"
   sodipodi:docname="drawing.svg"
   inkscape:export-filename="Programming\Assets\vectors\google.png"
   inkscape:export-xdpi="96"
   inkscape:export-ydpi="96"
   xmlns:inkscape="http://www.inkscape.org/namespaces/inkscape"
   xmlns:sodipodi="http://sodipodi.sourceforge.net/DTD/sodipodi-0.dtd"
   xmlns="http://www.w3.org/2000/svg"
   xmlns:svg="http://www.w3.org/2000/svg">
  <sodipodi:namedview
     id="namedview7"
     pagecolor="#ffffff"
     bordercolor="#000000"
     borderopacity="0.25"
     inkscape:showpageshadow="2"
     inkscape:pageopacity="0.0"
     inkscape:pagecheckerboard="0"
     inkscape:deskcolor="#d1d1d1"
     inkscape:document-units="mm"
     showgrid="false"
     inkscape:zoom="1.0129245"
     inkscape:cx="444.75181"
     inkscape:cy="89.345257"
     inkscape:window-width="1920"
     inkscape:window-height="991"
     inkscape:window-x="-9"
     inkscape:window-y="-9"
     inkscape:window-maximized="1"
     inkscape:current-layer="layer1" />
  <defs
     id="defs2" />
  <g
     inkscape:label="Layer 1"
     inkscape:groupmode="layer"
     id="layer1"
     transform="translate(498.24152,32.017205)">
    <path
       fill-rule="evenodd"
       clip-rule="evenodd"
       d="m -473.22076,-32.017205 c -13.83582,0 -25.02076,11.267387 -25.02076,25.2066821 0,11.142422 7.16656,20.5742489 17.10851,23.9124699 1.24299,0.250954 1.69829,-0.542372 1.69829,-1.209708 0,-0.584369 -0.041,-2.587402 -0.041,-4.674429 -6.96018,1.502659 -8.40957,-3.0048089 -8.40957,-3.0048089 -1.11855,-2.921325 -2.77587,-3.672143 -2.77587,-3.672143 -2.27807,-1.544145 0.16589,-1.544145 0.16589,-1.544145 2.52698,0.166955 3.85293,2.587402 3.85293,2.587402 2.23659,3.839107 5.84061,2.754364 7.29052,2.086517 0.20691,-1.627626 0.87014,-2.754366 1.57437,-3.380217 -5.55124,-0.584368 -11.39185,-2.754365 -11.39185,-12.436635 0,-2.7543651 0.99358,-5.0078411 2.56794,-6.7604321 -0.24839,-0.625853 -1.11854,-3.213767 0.24891,-6.677465 0,0 2.11262,-0.667849 6.87617,2.587402 a 24.055872,24.055872 0 0 1 6.25545,-0.834811 c 2.11264,0 4.26624,0.29244 6.25494,0.834811 4.76405,-3.255251 6.87669,-2.587402 6.87669,-2.587402 1.36746,3.463698 0.4968,6.051612 0.24839,6.677465 1.61584,1.752591 2.56846,4.006067 2.56846,6.7604321 0,9.68227 -5.84061,11.81027 -11.43333,12.436635 0.91164,0.792815 1.69831,2.294961 1.69831,4.673917 0,3.3802159 -0.041,6.0930959 -0.041,6.9273939 0,0.667849 0.45582,1.461175 1.69831,1.210732 9.94193,-3.339243 17.10851,-12.7705589 17.10851,-23.9129809 0.041,-13.9392951 -11.18494,-25.2066821 -24.9793,-25.2066821 z"
       fill="#24292f"
       id="path539"
       style="stroke-width:0.512153" />
  </g>
</svg>
