<?xml version="1.0" standalone="no"?>
<!DOCTYPE svg PUBLIC "-//W3C//DTD SVG 20010904//EN"
 "http://www.w3.org/TR/2001/REC-SVG-20010904/DTD/svg10.dtd">
<svg version="1.0" xmlns="http://www.w3.org/2000/svg"
 width="256.000000pt" height="256.000000pt" viewBox="0 0 256.000000 256.000000"
 preserveAspectRatio="xMidYMid meet">

<g transform="translate(0.000000,256.000000) scale(0.100000,-0.100000)"
fill="#000000" stroke="none">
<path d="M25 2535 l-25 -24 0 -236 0 -236 25 -24 c13 -14 36 -25 50 -25 14 0
37 11 50 25 25 24 25 26 25 210 l0 185 185 0 c184 0 186 0 210 25 32 31 32 69
0 100 l-24 25 -236 0 -236 0 -24 -25z"/>
<path d="M2015 2535 c-14 -13 -25 -36 -25 -50 0 -14 11 -37 25 -50 24 -25 26
-25 210 -25 l185 0 0 -185 c0 -184 0 -186 25 -210 13 -14 36 -25 50 -25 14 0
37 11 50 25 l25 24 0 236 0 236 -25 24 -24 25 -236 0 -236 0 -24 -25z"/>
<path d="M476 2104 c-24 -23 -24 -505 0 -528 12 -13 40 -16 143 -16 85 0 131
4 139 12 8 8 12 47 12 108 0 133 -4 130 181 130 100 0 149 -4 157 -12 17 -17
17 -1219 0 -1236 -7 -7 -43 -12 -90 -12 -66 0 -79 -3 -88 -19 -5 -11 -10 -74
-10 -140 0 -95 3 -123 16 -135 13 -14 59 -16 344 -16 285 0 331 2 344 16 13
12 16 40 16 135 0 66 -5 129 -10 140 -9 16 -22 19 -88 19 -47 0 -83 5 -90 12
-17 17 -17 1219 0 1236 8 8 58 12 158 12 184 0 180 3 180 -131 0 -61 4 -99 12
-107 8 -8 54 -12 139 -12 103 0 131 3 143 16 24 23 24 505 0 528 -14 14 -100
16 -804 16 -704 0 -790 -2 -804 -16z"/>
<path d="M25 545 l-25 -24 0 -236 0 -236 25 -24 24 -25 236 0 236 0 24 25 c14
13 25 36 25 50 0 14 -11 37 -25 50 -24 25 -26 25 -210 25 l-185 0 0 185 c0
184 0 186 -25 210 -13 14 -36 25 -50 25 -14 0 -37 -11 -50 -25z"/>
<path d="M2435 545 c-25 -24 -25 -26 -25 -210 l0 -185 -185 0 c-184 0 -186 0
-210 -25 -14 -13 -25 -36 -25 -50 0 -14 11 -37 25 -50 l24 -25 236 0 236 0 24
25 25 24 0 236 0 236 -25 24 c-13 14 -36 25 -50 25 -14 0 -37 -11 -50 -25z"/>
</g>
</svg>
