<?xml version="1.0" encoding="UTF-8" standalone="no"?>
<!-- Created with Inkscape (http://www.inkscape.org/) -->

<svg
   width="50.00338mm"
   height="49.989262mm"
   viewBox="0 0 50.00338 49.989262"
   version="1.1"
   id="svg5"
   inkscape:version="1.2.1 (9c6d41e410, 2022-07-14)"
   sodipodi:docname="drawing.svg"
   inkscape:export-filename="Programming\Assets\vectors\google.svg"
   inkscape:export-xdpi="96"
   inkscape:export-ydpi="96"
   xmlns:inkscape="http://www.inkscape.org/namespaces/inkscape"
   xmlns:sodipodi="http://sodipodi.sourceforge.net/DTD/sodipodi-0.dtd"
   xmlns="http://www.w3.org/2000/svg"
   xmlns:svg="http://www.w3.org/2000/svg">
  <sodipodi:namedview
     id="namedview7"
     pagecolor="#ffffff"
     bordercolor="#000000"
     borderopacity="0.25"
     inkscape:showpageshadow="2"
     inkscape:pageopacity="0.0"
     inkscape:pagecheckerboard="0"
     inkscape:deskcolor="#d1d1d1"
     inkscape:document-units="mm"
     showgrid="false"
     inkscape:zoom="1.0129245"
     inkscape:cx="444.75181"
     inkscape:cy="89.345257"
     inkscape:window-width="1920"
     inkscape:window-height="991"
     inkscape:window-x="-9"
     inkscape:window-y="-9"
     inkscape:window-maximized="1"
     inkscape:current-layer="layer1" />
  <defs
     id="defs2" />
  <g
     inkscape:label="Layer 1"
     inkscape:groupmode="layer"
     id="layer1"
     transform="translate(376.92113,35.572966)">
    <path
       fill="#039be5"
       d="m -351.91944,-35.572965 a 24.99462,24.99462 0 1 0 0,49.989238 24.99462,24.99462 0 1 0 0,-49.989238 z"
       id="path507"
       style="stroke-width:1.3155" />
    <path
       fill="#ffffff"
       d="m -348.53595,-3.9534553 h 6.46831 l 1.01558,-6.5709557 h -7.48523 v -3.591334 c 0,-2.729674 0.89192,-5.150204 3.44534,-5.150204 h 4.10304 v -5.734293 c -0.72089,-0.09735 -2.24556,-0.310451 -5.12652,-0.310451 -6.01582,0 -9.5427,3.176949 -9.5427,10.414862 v 4.371431 h -6.18417 v 6.5709551 h 6.18417 V 14.107136 c 1.22475,0.184162 2.46526,0.30916 3.73869,0.30916 1.15106,0 2.27449,-0.105258 3.38349,-0.255214 z"
       id="path509"
       style="stroke-width:1.3155" />
    <path
       d="m -388.29871,-31.069627 h 124.4091 V 93.339346 h -124.4091 z"
       fill="none"
       id="path169"
       style="stroke-width:5.65495" />
  </g>
</svg>
