<?xml version="1.0" encoding="UTF-8" standalone="no"?>
<!-- Created with Inkscape (http://www.inkscape.org/) -->

<svg
   width="50mm"
   height="40.6339mm"
   viewBox="0 0 50 40.6339"
   version="1.1"
   id="svg5"
   inkscape:version="1.2.1 (9c6d41e410, 2022-07-14)"
   sodipodi:docname="drawing.svg"
   inkscape:export-filename="Programming\Assets\vectors\facebook.svg"
   inkscape:export-xdpi="96"
   inkscape:export-ydpi="96"
   xmlns:inkscape="http://www.inkscape.org/namespaces/inkscape"
   xmlns:sodipodi="http://sodipodi.sourceforge.net/DTD/sodipodi-0.dtd"
   xmlns="http://www.w3.org/2000/svg"
   xmlns:svg="http://www.w3.org/2000/svg">
  <sodipodi:namedview
     id="namedview7"
     pagecolor="#ffffff"
     bordercolor="#000000"
     borderopacity="0.25"
     inkscape:showpageshadow="2"
     inkscape:pageopacity="0.0"
     inkscape:pagecheckerboard="0"
     inkscape:deskcolor="#d1d1d1"
     inkscape:document-units="mm"
     showgrid="false"
     inkscape:zoom="1.0129245"
     inkscape:cx="444.75181"
     inkscape:cy="89.345257"
     inkscape:window-width="1920"
     inkscape:window-height="991"
     inkscape:window-x="-9"
     inkscape:window-y="-9"
     inkscape:window-maximized="1"
     inkscape:current-layer="layer1" />
  <defs
     id="defs2" />
  <g
     inkscape:label="Layer 1"
     inkscape:groupmode="layer"
     id="layer1"
     transform="translate(304.35853,29.403647)">
    <g
       id="g4"
       transform="matrix(0.19531254,0,0,0.19531254,-304.35854,-29.564194)">
      <path
         d="m 256,25.450026 c -9.41916,4.177241 -19.54155,7.000461 -30.16584,8.270207 C 236.6785,27.219805 245.00583,16.926993 248.92744,4.6630769 238.77976,10.681263 227.53932,15.052338 215.57599,17.408298 205.99483,7.2006971 192.34506,0.822 177.2392,0.822 c -29.0066,0 -52.52312,23.515593 -52.52312,52.520312 0,4.116376 0.46538,8.125066 1.36057,11.968952 C 82.425838,63.121045 43.725725,42.211429 17.821398,10.435929 c -4.520897,7.757065 -7.110955,16.779194 -7.110955,26.40436 0,18.221237 9.273082,34.297202 23.365771,43.715425 -8.610118,-0.27249 -16.708029,-2.635005 -23.789956,-6.568785 -0.0037,0.219116 -0.0037,0.439168 -0.0037,0.660156 0,25.447365 18.104188,46.675355 42.131051,51.499645 -4.407594,1.20045 -9.047412,1.84188 -13.83799,1.84188 -3.384118,0 -6.674596,-0.32867 -9.8808,-0.94201 6.683024,20.86654 26.079432,36.05106 49.062219,36.47525 -17.974966,14.08613 -40.621588,22.48275 -65.228077,22.48275 -4.2390434,0 -8.4200303,-0.24814 -12.528915,-0.73319 23.243103,14.90173 50.850726,23.59612 80.510919,23.59612 96.605615,0 149.433065,-80.03055 149.433065,-149.43493 0,-2.277303 -0.0506,-4.542434 -0.1517,-6.794455 C 240.05326,45.233164 248.95834,35.982554 256,25.450026"
         fill="#55acee"
         id="path2" />
    </g>
    <path
       d="m -388.29871,-31.069627 h 124.4091 V 93.339346 h -124.4091 z"
       fill="none"
       id="path169"
       style="stroke-width:5.65495" />
  </g>
</svg>
